<mxfile host="app.diagrams.net" modified="2024-04-17T19:21:53.248Z" agent="Mozilla/5.0 (X11; Linux x86_64; rv:124.0) Gecko/20100101 Firefox/124.0" etag="FNOhqHMRMpAo-igF6eo3" version="24.2.5" type="device">
  <diagram name="Page-1" id="4bZNH5fqXUihEuGH9DZ9">
    <mxGraphModel dx="1113" dy="581" grid="1" gridSize="10" guides="1" tooltips="1" connect="1" arrows="1" fold="1" page="1" pageScale="1" pageWidth="850" pageHeight="1100" math="0" shadow="0">
      <root>
        <mxCell id="0" />
        <mxCell id="1" parent="0" />
        <mxCell id="KkzaRJc-Y2wqKAdUkZ55-12" value="" style="group" vertex="1" connectable="0" parent="1">
          <mxGeometry x="60" y="170" width="140" height="170" as="geometry" />
        </mxCell>
        <mxCell id="KkzaRJc-Y2wqKAdUkZ55-9" value="&lt;div&gt;Victim 1&lt;/div&gt;&lt;div&gt;&lt;br&gt;&lt;/div&gt;&lt;div&gt;&lt;br&gt;&lt;/div&gt;&lt;div&gt;&lt;br&gt;&lt;/div&gt;&lt;div&gt;&lt;br&gt;&lt;/div&gt;&lt;div&gt;&lt;br&gt;&lt;/div&gt;&lt;div&gt;&lt;br&gt;&lt;/div&gt;&lt;div&gt;&lt;br&gt;&lt;/div&gt;&lt;div&gt;&lt;br&gt;&lt;/div&gt;&lt;div&gt;&lt;br&gt;&lt;/div&gt;" style="rounded=0;whiteSpace=wrap;html=1;" vertex="1" parent="KkzaRJc-Y2wqKAdUkZ55-12">
          <mxGeometry width="140" height="170" as="geometry" />
        </mxCell>
        <mxCell id="KkzaRJc-Y2wqKAdUkZ55-2" value="&lt;div&gt;Client&lt;/div&gt;&lt;div&gt;Node 1&lt;br&gt;&lt;/div&gt;" style="rounded=0;whiteSpace=wrap;html=1;" vertex="1" parent="KkzaRJc-Y2wqKAdUkZ55-12">
          <mxGeometry x="10" y="30" width="120" height="60" as="geometry" />
        </mxCell>
        <mxCell id="KkzaRJc-Y2wqKAdUkZ55-11" value="&lt;div&gt;Server&lt;br&gt;&lt;/div&gt;&lt;div&gt;Node 1&lt;br&gt;&lt;/div&gt;" style="rounded=0;whiteSpace=wrap;html=1;" vertex="1" parent="KkzaRJc-Y2wqKAdUkZ55-12">
          <mxGeometry x="10" y="100" width="120" height="60" as="geometry" />
        </mxCell>
        <mxCell id="KkzaRJc-Y2wqKAdUkZ55-13" value="" style="group" vertex="1" connectable="0" parent="1">
          <mxGeometry x="220" y="170" width="140" height="170" as="geometry" />
        </mxCell>
        <mxCell id="KkzaRJc-Y2wqKAdUkZ55-14" value="&lt;div&gt;Victim 2&lt;br&gt;&lt;/div&gt;&lt;div&gt;&lt;br&gt;&lt;/div&gt;&lt;div&gt;&lt;br&gt;&lt;/div&gt;&lt;div&gt;&lt;br&gt;&lt;/div&gt;&lt;div&gt;&lt;br&gt;&lt;/div&gt;&lt;div&gt;&lt;br&gt;&lt;/div&gt;&lt;div&gt;&lt;br&gt;&lt;/div&gt;&lt;div&gt;&lt;br&gt;&lt;/div&gt;&lt;div&gt;&lt;br&gt;&lt;/div&gt;&lt;div&gt;&lt;br&gt;&lt;/div&gt;" style="rounded=0;whiteSpace=wrap;html=1;" vertex="1" parent="KkzaRJc-Y2wqKAdUkZ55-13">
          <mxGeometry width="140" height="170" as="geometry" />
        </mxCell>
        <mxCell id="KkzaRJc-Y2wqKAdUkZ55-15" value="&lt;div&gt;Client&lt;/div&gt;&lt;div&gt;Node 1&lt;br&gt;&lt;/div&gt;" style="rounded=0;whiteSpace=wrap;html=1;" vertex="1" parent="KkzaRJc-Y2wqKAdUkZ55-13">
          <mxGeometry x="10" y="30" width="120" height="60" as="geometry" />
        </mxCell>
        <mxCell id="KkzaRJc-Y2wqKAdUkZ55-16" value="&lt;div&gt;Server&lt;br&gt;&lt;/div&gt;&lt;div&gt;Node 1&lt;br&gt;&lt;/div&gt;" style="rounded=0;whiteSpace=wrap;html=1;" vertex="1" parent="KkzaRJc-Y2wqKAdUkZ55-13">
          <mxGeometry x="10" y="100" width="120" height="60" as="geometry" />
        </mxCell>
        <mxCell id="KkzaRJc-Y2wqKAdUkZ55-17" value="" style="group" vertex="1" connectable="0" parent="1">
          <mxGeometry x="380" y="170" width="140" height="170" as="geometry" />
        </mxCell>
        <mxCell id="KkzaRJc-Y2wqKAdUkZ55-18" value="&lt;div&gt;Victim 3&lt;br&gt;&lt;/div&gt;&lt;div&gt;&lt;br&gt;&lt;/div&gt;&lt;div&gt;&lt;br&gt;&lt;/div&gt;&lt;div&gt;&lt;br&gt;&lt;/div&gt;&lt;div&gt;&lt;br&gt;&lt;/div&gt;&lt;div&gt;&lt;br&gt;&lt;/div&gt;&lt;div&gt;&lt;br&gt;&lt;/div&gt;&lt;div&gt;&lt;br&gt;&lt;/div&gt;&lt;div&gt;&lt;br&gt;&lt;/div&gt;&lt;div&gt;&lt;br&gt;&lt;/div&gt;" style="rounded=0;whiteSpace=wrap;html=1;" vertex="1" parent="KkzaRJc-Y2wqKAdUkZ55-17">
          <mxGeometry width="140" height="170" as="geometry" />
        </mxCell>
        <mxCell id="KkzaRJc-Y2wqKAdUkZ55-19" value="&lt;div&gt;Client&lt;/div&gt;&lt;div&gt;Node 1&lt;br&gt;&lt;/div&gt;" style="rounded=0;whiteSpace=wrap;html=1;" vertex="1" parent="KkzaRJc-Y2wqKAdUkZ55-17">
          <mxGeometry x="10" y="30" width="120" height="60" as="geometry" />
        </mxCell>
        <mxCell id="KkzaRJc-Y2wqKAdUkZ55-20" value="&lt;div&gt;Server&lt;br&gt;&lt;/div&gt;&lt;div&gt;Node 1&lt;br&gt;&lt;/div&gt;" style="rounded=0;whiteSpace=wrap;html=1;" vertex="1" parent="KkzaRJc-Y2wqKAdUkZ55-17">
          <mxGeometry x="10" y="100" width="120" height="60" as="geometry" />
        </mxCell>
        <mxCell id="KkzaRJc-Y2wqKAdUkZ55-21" value="" style="group" vertex="1" connectable="0" parent="1">
          <mxGeometry x="540" y="170" width="140" height="170" as="geometry" />
        </mxCell>
        <mxCell id="KkzaRJc-Y2wqKAdUkZ55-22" value="&lt;div&gt;Victim 4&lt;br&gt;&lt;/div&gt;&lt;div&gt;&lt;br&gt;&lt;/div&gt;&lt;div&gt;&lt;br&gt;&lt;/div&gt;&lt;div&gt;&lt;br&gt;&lt;/div&gt;&lt;div&gt;&lt;br&gt;&lt;/div&gt;&lt;div&gt;&lt;br&gt;&lt;/div&gt;&lt;div&gt;&lt;br&gt;&lt;/div&gt;&lt;div&gt;&lt;br&gt;&lt;/div&gt;&lt;div&gt;&lt;br&gt;&lt;/div&gt;&lt;div&gt;&lt;br&gt;&lt;/div&gt;" style="rounded=0;whiteSpace=wrap;html=1;" vertex="1" parent="KkzaRJc-Y2wqKAdUkZ55-21">
          <mxGeometry width="140" height="170" as="geometry" />
        </mxCell>
        <mxCell id="KkzaRJc-Y2wqKAdUkZ55-23" value="&lt;div&gt;Client&lt;/div&gt;&lt;div&gt;Node 1&lt;br&gt;&lt;/div&gt;" style="rounded=0;whiteSpace=wrap;html=1;" vertex="1" parent="KkzaRJc-Y2wqKAdUkZ55-21">
          <mxGeometry x="10" y="30" width="120" height="60" as="geometry" />
        </mxCell>
        <mxCell id="KkzaRJc-Y2wqKAdUkZ55-24" value="&lt;div&gt;Server&lt;br&gt;&lt;/div&gt;&lt;div&gt;Node 1&lt;br&gt;&lt;/div&gt;" style="rounded=0;whiteSpace=wrap;html=1;" vertex="1" parent="KkzaRJc-Y2wqKAdUkZ55-21">
          <mxGeometry x="10" y="100" width="120" height="60" as="geometry" />
        </mxCell>
        <mxCell id="KkzaRJc-Y2wqKAdUkZ55-26" value="" style="group" vertex="1" connectable="0" parent="1">
          <mxGeometry x="700" y="170" width="140" height="170" as="geometry" />
        </mxCell>
        <mxCell id="KkzaRJc-Y2wqKAdUkZ55-27" value="&lt;div&gt;Victim 5&lt;br&gt;&lt;/div&gt;&lt;div&gt;&lt;br&gt;&lt;/div&gt;&lt;div&gt;&lt;br&gt;&lt;/div&gt;&lt;div&gt;&lt;br&gt;&lt;/div&gt;&lt;div&gt;&lt;br&gt;&lt;/div&gt;&lt;div&gt;&lt;br&gt;&lt;/div&gt;&lt;div&gt;&lt;br&gt;&lt;/div&gt;&lt;div&gt;&lt;br&gt;&lt;/div&gt;&lt;div&gt;&lt;br&gt;&lt;/div&gt;&lt;div&gt;&lt;br&gt;&lt;/div&gt;" style="rounded=0;whiteSpace=wrap;html=1;" vertex="1" parent="KkzaRJc-Y2wqKAdUkZ55-26">
          <mxGeometry width="140" height="170" as="geometry" />
        </mxCell>
        <mxCell id="KkzaRJc-Y2wqKAdUkZ55-28" value="&lt;div&gt;Client&lt;/div&gt;&lt;div&gt;Node 1&lt;br&gt;&lt;/div&gt;" style="rounded=0;whiteSpace=wrap;html=1;" vertex="1" parent="KkzaRJc-Y2wqKAdUkZ55-26">
          <mxGeometry x="10" y="30" width="120" height="60" as="geometry" />
        </mxCell>
        <mxCell id="KkzaRJc-Y2wqKAdUkZ55-29" value="&lt;div&gt;Server&lt;br&gt;&lt;/div&gt;&lt;div&gt;Node 1&lt;br&gt;&lt;/div&gt;" style="rounded=0;whiteSpace=wrap;html=1;" vertex="1" parent="KkzaRJc-Y2wqKAdUkZ55-26">
          <mxGeometry x="10" y="100" width="120" height="60" as="geometry" />
        </mxCell>
        <mxCell id="KkzaRJc-Y2wqKAdUkZ55-30" value="" style="group" vertex="1" connectable="0" parent="1">
          <mxGeometry x="360" y="20" width="180" height="100" as="geometry" />
        </mxCell>
        <mxCell id="KkzaRJc-Y2wqKAdUkZ55-7" value="Pirate&#39;s CC Server&lt;br&gt;&lt;div&gt;&lt;br&gt;&lt;/div&gt;&lt;div&gt;&lt;br&gt;&lt;/div&gt;&lt;div&gt;&lt;br&gt;&lt;/div&gt;&lt;div&gt;&lt;br&gt;&lt;/div&gt;&lt;div&gt;&lt;br&gt;&lt;/div&gt;" style="rounded=0;whiteSpace=wrap;html=1;" vertex="1" parent="KkzaRJc-Y2wqKAdUkZ55-30">
          <mxGeometry width="180" height="100" as="geometry" />
        </mxCell>
        <mxCell id="KkzaRJc-Y2wqKAdUkZ55-1" value="&lt;div&gt;Server&lt;/div&gt;&lt;div&gt;Node 0&lt;br&gt;&lt;/div&gt;" style="rounded=0;whiteSpace=wrap;html=1;" vertex="1" parent="KkzaRJc-Y2wqKAdUkZ55-30">
          <mxGeometry x="30" y="30" width="120" height="60" as="geometry" />
        </mxCell>
        <mxCell id="KkzaRJc-Y2wqKAdUkZ55-31" value="" style="endArrow=classic;html=1;rounded=0;entryX=0.5;entryY=0;entryDx=0;entryDy=0;" edge="1" parent="1" source="KkzaRJc-Y2wqKAdUkZ55-1" target="KkzaRJc-Y2wqKAdUkZ55-2">
          <mxGeometry width="50" height="50" relative="1" as="geometry">
            <mxPoint x="400" y="320" as="sourcePoint" />
            <mxPoint x="450" y="270" as="targetPoint" />
          </mxGeometry>
        </mxCell>
        <mxCell id="KkzaRJc-Y2wqKAdUkZ55-32" style="edgeStyle=orthogonalEdgeStyle;rounded=0;orthogonalLoop=1;jettySize=auto;html=1;exitX=0.25;exitY=1;exitDx=0;exitDy=0;" edge="1" parent="1" source="KkzaRJc-Y2wqKAdUkZ55-1" target="KkzaRJc-Y2wqKAdUkZ55-15">
          <mxGeometry relative="1" as="geometry" />
        </mxCell>
        <mxCell id="KkzaRJc-Y2wqKAdUkZ55-33" style="edgeStyle=orthogonalEdgeStyle;rounded=0;orthogonalLoop=1;jettySize=auto;html=1;exitX=0.5;exitY=1;exitDx=0;exitDy=0;" edge="1" parent="1" source="KkzaRJc-Y2wqKAdUkZ55-1" target="KkzaRJc-Y2wqKAdUkZ55-19">
          <mxGeometry relative="1" as="geometry" />
        </mxCell>
        <mxCell id="KkzaRJc-Y2wqKAdUkZ55-34" style="edgeStyle=orthogonalEdgeStyle;rounded=0;orthogonalLoop=1;jettySize=auto;html=1;exitX=0.75;exitY=1;exitDx=0;exitDy=0;" edge="1" parent="1" source="KkzaRJc-Y2wqKAdUkZ55-1" target="KkzaRJc-Y2wqKAdUkZ55-23">
          <mxGeometry relative="1" as="geometry" />
        </mxCell>
        <mxCell id="KkzaRJc-Y2wqKAdUkZ55-35" value="" style="endArrow=classic;html=1;rounded=0;entryX=0.5;entryY=0;entryDx=0;entryDy=0;exitX=1;exitY=0.75;exitDx=0;exitDy=0;" edge="1" parent="1" source="KkzaRJc-Y2wqKAdUkZ55-1" target="KkzaRJc-Y2wqKAdUkZ55-28">
          <mxGeometry width="50" height="50" relative="1" as="geometry">
            <mxPoint x="400" y="320" as="sourcePoint" />
            <mxPoint x="450" y="270" as="targetPoint" />
          </mxGeometry>
        </mxCell>
        <mxCell id="KkzaRJc-Y2wqKAdUkZ55-36" value="" style="group" vertex="1" connectable="0" parent="1">
          <mxGeometry x="10" y="390" width="70" height="170" as="geometry" />
        </mxCell>
        <mxCell id="KkzaRJc-Y2wqKAdUkZ55-37" value="&lt;div&gt;Victim 6&lt;br&gt;&lt;/div&gt;&lt;div&gt;&lt;br&gt;&lt;/div&gt;&lt;div&gt;&lt;br&gt;&lt;/div&gt;&lt;div&gt;&lt;br&gt;&lt;/div&gt;&lt;div&gt;&lt;br&gt;&lt;/div&gt;&lt;div&gt;&lt;br&gt;&lt;/div&gt;&lt;div&gt;&lt;br&gt;&lt;/div&gt;&lt;div&gt;&lt;br&gt;&lt;/div&gt;&lt;div&gt;&lt;br&gt;&lt;/div&gt;&lt;div&gt;&lt;br&gt;&lt;/div&gt;" style="rounded=0;whiteSpace=wrap;html=1;" vertex="1" parent="KkzaRJc-Y2wqKAdUkZ55-36">
          <mxGeometry width="70" height="170" as="geometry" />
        </mxCell>
        <mxCell id="KkzaRJc-Y2wqKAdUkZ55-38" value="&lt;div&gt;Client&lt;/div&gt;&lt;div&gt;Node 2&lt;br&gt;&lt;/div&gt;" style="rounded=0;whiteSpace=wrap;html=1;" vertex="1" parent="KkzaRJc-Y2wqKAdUkZ55-36">
          <mxGeometry x="5" y="30" width="60.000000000000014" height="60" as="geometry" />
        </mxCell>
        <mxCell id="KkzaRJc-Y2wqKAdUkZ55-39" value="&lt;div&gt;Server&lt;br&gt;&lt;/div&gt;&lt;div&gt;Node 2&lt;br&gt;&lt;/div&gt;" style="rounded=0;whiteSpace=wrap;html=1;" vertex="1" parent="KkzaRJc-Y2wqKAdUkZ55-36">
          <mxGeometry x="5" y="100" width="60.000000000000014" height="60" as="geometry" />
        </mxCell>
        <mxCell id="KkzaRJc-Y2wqKAdUkZ55-40" value="" style="group" vertex="1" connectable="0" parent="1">
          <mxGeometry x="90" y="390" width="70" height="170" as="geometry" />
        </mxCell>
        <mxCell id="KkzaRJc-Y2wqKAdUkZ55-41" value="&lt;div&gt;Victim 6&lt;br&gt;&lt;/div&gt;&lt;div&gt;&lt;br&gt;&lt;/div&gt;&lt;div&gt;&lt;br&gt;&lt;/div&gt;&lt;div&gt;&lt;br&gt;&lt;/div&gt;&lt;div&gt;&lt;br&gt;&lt;/div&gt;&lt;div&gt;&lt;br&gt;&lt;/div&gt;&lt;div&gt;&lt;br&gt;&lt;/div&gt;&lt;div&gt;&lt;br&gt;&lt;/div&gt;&lt;div&gt;&lt;br&gt;&lt;/div&gt;&lt;div&gt;&lt;br&gt;&lt;/div&gt;" style="rounded=0;whiteSpace=wrap;html=1;" vertex="1" parent="KkzaRJc-Y2wqKAdUkZ55-40">
          <mxGeometry width="70" height="170" as="geometry" />
        </mxCell>
        <mxCell id="KkzaRJc-Y2wqKAdUkZ55-42" value="&lt;div&gt;Client&lt;/div&gt;&lt;div&gt;Node 2&lt;br&gt;&lt;/div&gt;" style="rounded=0;whiteSpace=wrap;html=1;" vertex="1" parent="KkzaRJc-Y2wqKAdUkZ55-40">
          <mxGeometry x="5" y="30" width="60.000000000000014" height="60" as="geometry" />
        </mxCell>
        <mxCell id="KkzaRJc-Y2wqKAdUkZ55-43" value="&lt;div&gt;Server&lt;br&gt;&lt;/div&gt;&lt;div&gt;Node 2&lt;br&gt;&lt;/div&gt;" style="rounded=0;whiteSpace=wrap;html=1;" vertex="1" parent="KkzaRJc-Y2wqKAdUkZ55-40">
          <mxGeometry x="5" y="100" width="60.000000000000014" height="60" as="geometry" />
        </mxCell>
        <mxCell id="KkzaRJc-Y2wqKAdUkZ55-44" value="" style="group" vertex="1" connectable="0" parent="1">
          <mxGeometry x="170" y="390" width="70" height="170" as="geometry" />
        </mxCell>
        <mxCell id="KkzaRJc-Y2wqKAdUkZ55-45" value="&lt;div&gt;Victim 6&lt;br&gt;&lt;/div&gt;&lt;div&gt;&lt;br&gt;&lt;/div&gt;&lt;div&gt;&lt;br&gt;&lt;/div&gt;&lt;div&gt;&lt;br&gt;&lt;/div&gt;&lt;div&gt;&lt;br&gt;&lt;/div&gt;&lt;div&gt;&lt;br&gt;&lt;/div&gt;&lt;div&gt;&lt;br&gt;&lt;/div&gt;&lt;div&gt;&lt;br&gt;&lt;/div&gt;&lt;div&gt;&lt;br&gt;&lt;/div&gt;&lt;div&gt;&lt;br&gt;&lt;/div&gt;" style="rounded=0;whiteSpace=wrap;html=1;" vertex="1" parent="KkzaRJc-Y2wqKAdUkZ55-44">
          <mxGeometry width="70" height="170" as="geometry" />
        </mxCell>
        <mxCell id="KkzaRJc-Y2wqKAdUkZ55-46" value="&lt;div&gt;Client&lt;/div&gt;&lt;div&gt;Node 2&lt;br&gt;&lt;/div&gt;" style="rounded=0;whiteSpace=wrap;html=1;" vertex="1" parent="KkzaRJc-Y2wqKAdUkZ55-44">
          <mxGeometry x="5" y="30" width="60.000000000000014" height="60" as="geometry" />
        </mxCell>
        <mxCell id="KkzaRJc-Y2wqKAdUkZ55-47" value="&lt;div&gt;Server&lt;br&gt;&lt;/div&gt;&lt;div&gt;Node 2&lt;br&gt;&lt;/div&gt;" style="rounded=0;whiteSpace=wrap;html=1;" vertex="1" parent="KkzaRJc-Y2wqKAdUkZ55-44">
          <mxGeometry x="5" y="100" width="60.000000000000014" height="60" as="geometry" />
        </mxCell>
        <mxCell id="KkzaRJc-Y2wqKAdUkZ55-48" value="" style="group" vertex="1" connectable="0" parent="1">
          <mxGeometry x="250" y="390" width="70" height="170" as="geometry" />
        </mxCell>
        <mxCell id="KkzaRJc-Y2wqKAdUkZ55-49" value="&lt;div&gt;Victim 6&lt;br&gt;&lt;/div&gt;&lt;div&gt;&lt;br&gt;&lt;/div&gt;&lt;div&gt;&lt;br&gt;&lt;/div&gt;&lt;div&gt;&lt;br&gt;&lt;/div&gt;&lt;div&gt;&lt;br&gt;&lt;/div&gt;&lt;div&gt;&lt;br&gt;&lt;/div&gt;&lt;div&gt;&lt;br&gt;&lt;/div&gt;&lt;div&gt;&lt;br&gt;&lt;/div&gt;&lt;div&gt;&lt;br&gt;&lt;/div&gt;&lt;div&gt;&lt;br&gt;&lt;/div&gt;" style="rounded=0;whiteSpace=wrap;html=1;" vertex="1" parent="KkzaRJc-Y2wqKAdUkZ55-48">
          <mxGeometry width="70" height="170" as="geometry" />
        </mxCell>
        <mxCell id="KkzaRJc-Y2wqKAdUkZ55-50" value="&lt;div&gt;Client&lt;/div&gt;&lt;div&gt;Node 2&lt;br&gt;&lt;/div&gt;" style="rounded=0;whiteSpace=wrap;html=1;" vertex="1" parent="KkzaRJc-Y2wqKAdUkZ55-48">
          <mxGeometry x="5" y="30" width="60.000000000000014" height="60" as="geometry" />
        </mxCell>
        <mxCell id="KkzaRJc-Y2wqKAdUkZ55-51" value="&lt;div&gt;Server&lt;br&gt;&lt;/div&gt;&lt;div&gt;Node 2&lt;br&gt;&lt;/div&gt;" style="rounded=0;whiteSpace=wrap;html=1;" vertex="1" parent="KkzaRJc-Y2wqKAdUkZ55-48">
          <mxGeometry x="5" y="100" width="60.000000000000014" height="60" as="geometry" />
        </mxCell>
        <mxCell id="KkzaRJc-Y2wqKAdUkZ55-52" value="" style="group" vertex="1" connectable="0" parent="1">
          <mxGeometry x="330" y="390" width="70" height="170" as="geometry" />
        </mxCell>
        <mxCell id="KkzaRJc-Y2wqKAdUkZ55-53" value="&lt;div&gt;Victim 6&lt;br&gt;&lt;/div&gt;&lt;div&gt;&lt;br&gt;&lt;/div&gt;&lt;div&gt;&lt;br&gt;&lt;/div&gt;&lt;div&gt;&lt;br&gt;&lt;/div&gt;&lt;div&gt;&lt;br&gt;&lt;/div&gt;&lt;div&gt;&lt;br&gt;&lt;/div&gt;&lt;div&gt;&lt;br&gt;&lt;/div&gt;&lt;div&gt;&lt;br&gt;&lt;/div&gt;&lt;div&gt;&lt;br&gt;&lt;/div&gt;&lt;div&gt;&lt;br&gt;&lt;/div&gt;" style="rounded=0;whiteSpace=wrap;html=1;" vertex="1" parent="KkzaRJc-Y2wqKAdUkZ55-52">
          <mxGeometry width="70" height="170" as="geometry" />
        </mxCell>
        <mxCell id="KkzaRJc-Y2wqKAdUkZ55-54" value="&lt;div&gt;Client&lt;/div&gt;&lt;div&gt;Node 2&lt;br&gt;&lt;/div&gt;" style="rounded=0;whiteSpace=wrap;html=1;" vertex="1" parent="KkzaRJc-Y2wqKAdUkZ55-52">
          <mxGeometry x="5" y="30" width="60.000000000000014" height="60" as="geometry" />
        </mxCell>
        <mxCell id="KkzaRJc-Y2wqKAdUkZ55-55" value="&lt;div&gt;Server&lt;br&gt;&lt;/div&gt;&lt;div&gt;Node 2&lt;br&gt;&lt;/div&gt;" style="rounded=0;whiteSpace=wrap;html=1;" vertex="1" parent="KkzaRJc-Y2wqKAdUkZ55-52">
          <mxGeometry x="5" y="100" width="60.000000000000014" height="60" as="geometry" />
        </mxCell>
        <mxCell id="KkzaRJc-Y2wqKAdUkZ55-56" value="" style="endArrow=classic;html=1;rounded=0;exitX=0;exitY=1;exitDx=0;exitDy=0;entryX=0.5;entryY=0;entryDx=0;entryDy=0;" edge="1" parent="1" source="KkzaRJc-Y2wqKAdUkZ55-11" target="KkzaRJc-Y2wqKAdUkZ55-38">
          <mxGeometry width="50" height="50" relative="1" as="geometry">
            <mxPoint x="350" y="360" as="sourcePoint" />
            <mxPoint x="400" y="310" as="targetPoint" />
          </mxGeometry>
        </mxCell>
        <mxCell id="KkzaRJc-Y2wqKAdUkZ55-57" value="" style="endArrow=classic;html=1;rounded=0;exitX=1;exitY=1;exitDx=0;exitDy=0;entryX=0.5;entryY=0;entryDx=0;entryDy=0;" edge="1" parent="1" source="KkzaRJc-Y2wqKAdUkZ55-11" target="KkzaRJc-Y2wqKAdUkZ55-54">
          <mxGeometry width="50" height="50" relative="1" as="geometry">
            <mxPoint x="350" y="360" as="sourcePoint" />
            <mxPoint x="400" y="310" as="targetPoint" />
          </mxGeometry>
        </mxCell>
        <mxCell id="KkzaRJc-Y2wqKAdUkZ55-58" style="edgeStyle=orthogonalEdgeStyle;rounded=0;orthogonalLoop=1;jettySize=auto;html=1;exitX=0.25;exitY=1;exitDx=0;exitDy=0;" edge="1" parent="1" source="KkzaRJc-Y2wqKAdUkZ55-11" target="KkzaRJc-Y2wqKAdUkZ55-42">
          <mxGeometry relative="1" as="geometry" />
        </mxCell>
        <mxCell id="KkzaRJc-Y2wqKAdUkZ55-59" style="edgeStyle=orthogonalEdgeStyle;rounded=0;orthogonalLoop=1;jettySize=auto;html=1;exitX=0.5;exitY=1;exitDx=0;exitDy=0;" edge="1" parent="1" source="KkzaRJc-Y2wqKAdUkZ55-11" target="KkzaRJc-Y2wqKAdUkZ55-46">
          <mxGeometry relative="1" as="geometry" />
        </mxCell>
        <mxCell id="KkzaRJc-Y2wqKAdUkZ55-61" value="" style="endArrow=classic;html=1;rounded=0;exitX=0.75;exitY=1;exitDx=0;exitDy=0;entryX=0.5;entryY=0;entryDx=0;entryDy=0;" edge="1" parent="1" source="KkzaRJc-Y2wqKAdUkZ55-11" target="KkzaRJc-Y2wqKAdUkZ55-50">
          <mxGeometry width="50" height="50" relative="1" as="geometry">
            <mxPoint x="350" y="360" as="sourcePoint" />
            <mxPoint x="400" y="310" as="targetPoint" />
          </mxGeometry>
        </mxCell>
        <mxCell id="KkzaRJc-Y2wqKAdUkZ55-62" value="etc..." style="rounded=0;whiteSpace=wrap;html=1;" vertex="1" parent="1">
          <mxGeometry x="430" y="390" width="60" height="40" as="geometry" />
        </mxCell>
        <mxCell id="KkzaRJc-Y2wqKAdUkZ55-63" value="" style="endArrow=classic;html=1;rounded=0;exitX=1;exitY=1;exitDx=0;exitDy=0;" edge="1" parent="1" source="KkzaRJc-Y2wqKAdUkZ55-16" target="KkzaRJc-Y2wqKAdUkZ55-62">
          <mxGeometry width="50" height="50" relative="1" as="geometry">
            <mxPoint x="350" y="360" as="sourcePoint" />
            <mxPoint x="400" y="310" as="targetPoint" />
          </mxGeometry>
        </mxCell>
        <mxCell id="KkzaRJc-Y2wqKAdUkZ55-64" value="etc..." style="rounded=0;whiteSpace=wrap;html=1;" vertex="1" parent="1">
          <mxGeometry x="520" y="390" width="70" height="40" as="geometry" />
        </mxCell>
        <mxCell id="KkzaRJc-Y2wqKAdUkZ55-65" value="etc..." style="rounded=0;whiteSpace=wrap;html=1;" vertex="1" parent="1">
          <mxGeometry x="620" y="390" width="70" height="40" as="geometry" />
        </mxCell>
        <mxCell id="KkzaRJc-Y2wqKAdUkZ55-66" value="etc..." style="rounded=0;whiteSpace=wrap;html=1;" vertex="1" parent="1">
          <mxGeometry x="720" y="390" width="70" height="40" as="geometry" />
        </mxCell>
        <mxCell id="KkzaRJc-Y2wqKAdUkZ55-67" value="" style="endArrow=classic;html=1;rounded=0;exitX=0.75;exitY=1;exitDx=0;exitDy=0;entryX=0.25;entryY=0;entryDx=0;entryDy=0;" edge="1" parent="1" source="KkzaRJc-Y2wqKAdUkZ55-20" target="KkzaRJc-Y2wqKAdUkZ55-64">
          <mxGeometry width="50" height="50" relative="1" as="geometry">
            <mxPoint x="350" y="360" as="sourcePoint" />
            <mxPoint x="400" y="310" as="targetPoint" />
          </mxGeometry>
        </mxCell>
        <mxCell id="KkzaRJc-Y2wqKAdUkZ55-68" value="" style="endArrow=classic;html=1;rounded=0;exitX=0.5;exitY=1;exitDx=0;exitDy=0;entryX=0.5;entryY=0;entryDx=0;entryDy=0;" edge="1" parent="1" source="KkzaRJc-Y2wqKAdUkZ55-24" target="KkzaRJc-Y2wqKAdUkZ55-65">
          <mxGeometry width="50" height="50" relative="1" as="geometry">
            <mxPoint x="350" y="360" as="sourcePoint" />
            <mxPoint x="400" y="310" as="targetPoint" />
          </mxGeometry>
        </mxCell>
        <mxCell id="KkzaRJc-Y2wqKAdUkZ55-69" value="" style="endArrow=classic;html=1;rounded=0;exitX=0.5;exitY=1;exitDx=0;exitDy=0;entryX=0.75;entryY=0;entryDx=0;entryDy=0;" edge="1" parent="1" source="KkzaRJc-Y2wqKAdUkZ55-29" target="KkzaRJc-Y2wqKAdUkZ55-66">
          <mxGeometry width="50" height="50" relative="1" as="geometry">
            <mxPoint x="350" y="360" as="sourcePoint" />
            <mxPoint x="400" y="310" as="targetPoint" />
          </mxGeometry>
        </mxCell>
        <mxCell id="KkzaRJc-Y2wqKAdUkZ55-72" value="etc..." style="rounded=0;whiteSpace=wrap;html=1;" vertex="1" parent="1">
          <mxGeometry x="10" y="610" width="70" height="40" as="geometry" />
        </mxCell>
        <mxCell id="KkzaRJc-Y2wqKAdUkZ55-73" value="etc..." style="rounded=0;whiteSpace=wrap;html=1;" vertex="1" parent="1">
          <mxGeometry x="170" y="610" width="70" height="40" as="geometry" />
        </mxCell>
        <mxCell id="KkzaRJc-Y2wqKAdUkZ55-74" value="etc..." style="rounded=0;whiteSpace=wrap;html=1;" vertex="1" parent="1">
          <mxGeometry x="330" y="610" width="70" height="40" as="geometry" />
        </mxCell>
        <mxCell id="KkzaRJc-Y2wqKAdUkZ55-75" value="etc..." style="rounded=0;whiteSpace=wrap;html=1;" vertex="1" parent="1">
          <mxGeometry x="500" y="610" width="70" height="40" as="geometry" />
        </mxCell>
        <mxCell id="KkzaRJc-Y2wqKAdUkZ55-76" value="etc..." style="rounded=0;whiteSpace=wrap;html=1;" vertex="1" parent="1">
          <mxGeometry x="660" y="610" width="70" height="40" as="geometry" />
        </mxCell>
        <mxCell id="KkzaRJc-Y2wqKAdUkZ55-77" value="" style="endArrow=classic;html=1;rounded=0;exitX=0.5;exitY=1;exitDx=0;exitDy=0;entryX=0.5;entryY=0;entryDx=0;entryDy=0;" edge="1" parent="1" source="KkzaRJc-Y2wqKAdUkZ55-39" target="KkzaRJc-Y2wqKAdUkZ55-72">
          <mxGeometry width="50" height="50" relative="1" as="geometry">
            <mxPoint x="350" y="610" as="sourcePoint" />
            <mxPoint x="400" y="560" as="targetPoint" />
          </mxGeometry>
        </mxCell>
        <mxCell id="KkzaRJc-Y2wqKAdUkZ55-78" value="" style="endArrow=classic;html=1;rounded=0;exitX=0.5;exitY=1;exitDx=0;exitDy=0;entryX=0.25;entryY=0;entryDx=0;entryDy=0;" edge="1" parent="1" source="KkzaRJc-Y2wqKAdUkZ55-43" target="KkzaRJc-Y2wqKAdUkZ55-73">
          <mxGeometry width="50" height="50" relative="1" as="geometry">
            <mxPoint x="350" y="610" as="sourcePoint" />
            <mxPoint x="400" y="560" as="targetPoint" />
          </mxGeometry>
        </mxCell>
        <mxCell id="KkzaRJc-Y2wqKAdUkZ55-79" value="" style="endArrow=classic;html=1;rounded=0;exitX=0.5;exitY=1;exitDx=0;exitDy=0;entryX=0;entryY=0;entryDx=0;entryDy=0;" edge="1" parent="1" source="KkzaRJc-Y2wqKAdUkZ55-47" target="KkzaRJc-Y2wqKAdUkZ55-74">
          <mxGeometry width="50" height="50" relative="1" as="geometry">
            <mxPoint x="350" y="610" as="sourcePoint" />
            <mxPoint x="400" y="560" as="targetPoint" />
          </mxGeometry>
        </mxCell>
        <mxCell id="KkzaRJc-Y2wqKAdUkZ55-80" value="" style="endArrow=classic;html=1;rounded=0;exitX=0.75;exitY=1;exitDx=0;exitDy=0;entryX=0;entryY=0.25;entryDx=0;entryDy=0;" edge="1" parent="1" source="KkzaRJc-Y2wqKAdUkZ55-51" target="KkzaRJc-Y2wqKAdUkZ55-75">
          <mxGeometry width="50" height="50" relative="1" as="geometry">
            <mxPoint x="350" y="610" as="sourcePoint" />
            <mxPoint x="400" y="560" as="targetPoint" />
          </mxGeometry>
        </mxCell>
        <mxCell id="KkzaRJc-Y2wqKAdUkZ55-81" value="" style="endArrow=classic;html=1;rounded=0;entryX=0;entryY=0.5;entryDx=0;entryDy=0;exitX=1;exitY=1;exitDx=0;exitDy=0;" edge="1" parent="1" source="KkzaRJc-Y2wqKAdUkZ55-55" target="KkzaRJc-Y2wqKAdUkZ55-76">
          <mxGeometry width="50" height="50" relative="1" as="geometry">
            <mxPoint x="350" y="610" as="sourcePoint" />
            <mxPoint x="400" y="560" as="targetPoint" />
          </mxGeometry>
        </mxCell>
      </root>
    </mxGraphModel>
  </diagram>
</mxfile>
